<svg xmlns="http://www.w3.org/2000/svg" xmlns:xlink="http://www.w3.org/1999/xlink" preserveAspectRatio="xMidYMid" width="1278" height="140" viewBox="0 0 1278 140">
  <defs>
    <style>

      .cls-2 {
        fill: #ffffff;
      }
    </style>
  </defs>
  <path d="M1246.934,30.576 C1246.934,30.576 1246.934,132.399 1246.934,132.399 C1246.934,132.399 1221.603,132.399 1221.603,132.399 C1221.603,132.399 1221.603,30.576 1221.603,30.576 C1221.603,30.576 1190.536,30.576 1190.536,30.576 C1190.536,30.576 1190.536,5.267 1190.536,5.267 C1190.536,5.267 1278.001,5.267 1278.001,5.267 C1278.001,5.267 1278.001,30.576 1278.001,30.576 C1278.001,30.576 1246.934,30.576 1246.934,30.576 ZM1155.420,57.333 C1178.393,71.420 1186.548,79.497 1186.548,96.757 C1186.548,121.611 1170.086,137.671 1144.612,137.671 C1129.870,137.671 1117.355,133.181 1106.603,121.532 C1106.603,121.532 1117.660,99.135 1117.660,99.135 C1126.195,107.395 1136.653,113.870 1144.612,113.870 C1153.649,113.870 1160.731,107.085 1160.731,98.419 C1160.731,91.320 1160.731,89.632 1142.179,78.537 C1142.179,78.537 1131.368,72.054 1131.368,72.054 C1118.196,64.272 1105.998,54.543 1105.998,36.252 C1105.998,14.903 1122.013,-0.007 1144.943,-0.007 C1159.966,-0.007 1173.879,7.908 1182.367,15.193 C1182.367,15.193 1171.447,37.310 1171.447,37.310 C1162.918,30.994 1152.033,23.799 1144.445,23.799 C1137.126,23.799 1131.814,28.690 1131.814,35.423 C1131.814,39.120 1131.814,42.936 1145.913,51.499 C1145.913,51.499 1155.420,57.333 1155.420,57.333 ZM1017.556,5.266 C1017.556,5.266 1085.363,5.266 1085.363,5.266 C1085.363,5.266 1085.363,30.577 1085.363,30.577 C1085.363,30.577 1041.027,30.577 1041.027,30.577 C1041.027,30.577 1041.027,54.766 1041.027,54.766 C1041.027,54.766 1071.391,54.766 1071.391,54.766 C1071.391,54.766 1071.391,80.080 1071.391,80.080 C1071.391,80.080 1041.027,80.080 1041.027,80.080 C1041.027,80.080 1041.027,107.089 1041.027,107.089 C1041.027,107.089 1086.525,107.089 1086.525,107.089 C1086.525,107.089 1086.525,132.399 1086.525,132.399 C1086.525,132.399 1017.556,132.399 1017.556,132.399 C1017.556,132.399 1017.556,5.266 1017.556,5.266 ZM957.035,49.848 C957.035,49.848 990.344,49.848 990.344,49.848 C990.344,49.848 990.391,75.215 990.391,75.215 C990.391,75.215 957.035,75.215 957.035,75.215 C957.035,75.215 957.035,132.399 957.035,132.399 C957.035,132.399 933.567,132.399 933.567,132.399 C933.567,132.399 933.567,5.268 933.567,5.268 C933.567,5.268 1003.363,5.268 1003.363,5.268 C1003.363,5.268 1003.367,30.576 1003.367,30.576 C1003.367,30.576 957.035,30.576 957.035,30.576 C957.035,30.576 957.035,49.848 957.035,49.848 ZM856.356,132.556 C856.356,132.556 822.785,132.556 822.785,132.556 C822.785,132.556 792.853,79.536 792.853,79.536 C792.853,79.536 779.889,94.580 779.889,94.580 C779.889,94.580 779.889,132.556 779.889,132.556 C779.889,132.556 754.812,132.556 754.812,132.556 C754.812,132.556 754.812,5.113 754.812,5.113 C754.812,5.113 779.889,5.113 779.889,5.113 C779.889,5.113 779.889,56.443 779.889,56.443 C779.889,56.443 823.004,5.113 823.004,5.113 C823.004,5.113 857.007,5.113 857.007,5.113 C857.007,5.113 809.672,60.029 809.672,60.029 C809.672,60.029 856.356,132.556 856.356,132.556 ZM720.958,136.339 C720.958,136.339 653.519,68.947 653.519,68.947 C653.519,68.947 653.780,68.685 653.780,68.685 C653.780,68.685 653.773,68.679 653.773,68.679 C653.773,68.679 720.958,1.331 720.958,1.331 C720.958,1.331 738.867,19.229 738.867,19.229 C738.867,19.229 689.224,68.834 689.224,68.834 C689.224,68.834 738.867,118.441 738.867,118.441 C738.867,118.441 720.958,136.339 720.958,136.339 ZM631.312,132.465 C631.312,132.465 625.448,114.581 625.448,114.581 C625.448,114.581 593.252,114.581 593.252,114.581 C593.252,114.581 587.388,132.465 587.388,132.465 C587.388,132.465 563.543,132.465 563.543,132.465 C563.543,132.465 605.219,5.334 605.219,5.334 C605.219,5.334 613.595,5.334 613.595,5.334 C613.595,5.334 655.154,132.465 655.154,132.465 C655.154,132.465 631.312,132.465 631.312,132.465 ZM609.351,65.489 C609.351,65.489 601.551,89.273 601.551,89.273 C601.551,89.273 617.149,89.273 617.149,89.273 C617.149,89.273 609.351,65.489 609.351,65.489 ZM536.061,132.465 C536.061,132.465 510.729,132.465 510.729,132.465 C510.729,132.465 510.729,30.643 510.729,30.643 C510.729,30.643 479.663,30.643 479.663,30.643 C479.663,30.643 479.663,5.334 479.663,5.334 C479.663,5.334 567.127,5.334 567.127,5.334 C567.127,5.334 567.127,30.643 567.127,30.643 C567.127,30.643 536.061,30.643 536.061,30.643 C536.061,30.643 536.061,132.465 536.061,132.465 ZM443.998,57.333 C466.971,71.422 475.126,79.498 475.126,96.757 C475.126,121.611 458.664,137.671 433.189,137.671 C418.446,137.671 405.933,133.181 395.181,121.532 C395.181,121.532 406.238,99.135 406.238,99.135 C414.773,107.395 425.231,113.870 433.189,113.870 C442.227,113.870 449.308,107.085 449.308,98.419 C449.308,91.321 449.308,89.632 430.757,78.537 C430.757,78.537 419.945,72.054 419.945,72.054 C406.774,64.272 394.576,54.543 394.576,36.252 C394.576,14.903 410.590,-0.006 433.521,-0.006 C448.543,-0.006 462.457,7.908 470.944,15.193 C470.944,15.193 460.024,37.310 460.024,37.310 C451.496,30.994 440.610,23.799 433.023,23.799 C425.704,23.799 420.391,28.690 420.391,35.423 C420.391,39.117 420.391,42.936 434.490,51.499 C434.490,51.499 443.998,57.333 443.998,57.333 ZM260.175,112.362 C260.175,112.362 283.016,112.362 283.016,112.362 C283.016,112.362 283.016,35.848 283.016,35.848 C283.016,35.848 260.175,35.848 260.175,35.848 C260.175,35.848 260.175,10.539 260.175,10.539 C260.175,10.539 308.349,10.539 308.349,10.539 C308.349,10.539 308.349,112.362 308.349,112.362 C308.349,112.362 331.192,112.362 331.192,112.362 C331.192,112.362 331.192,137.671 331.192,137.671 C331.192,137.671 260.175,137.671 260.175,137.671 C260.175,137.671 260.175,112.362 260.175,112.362 ZM177.197,112.362 C177.197,112.362 200.038,112.362 200.038,112.362 C200.038,112.362 200.038,35.848 200.038,35.848 C200.038,35.848 177.197,35.848 177.197,35.848 C177.197,35.848 177.197,10.540 177.197,10.540 C177.197,10.540 225.371,10.540 225.371,10.540 C225.371,10.540 225.371,112.362 225.371,112.362 C225.371,112.362 248.214,112.362 248.214,112.362 C248.214,112.362 248.214,137.671 248.214,137.671 C248.214,137.671 177.197,137.671 177.197,137.671 C177.197,137.671 177.197,112.362 177.197,112.362 ZM120.786,140.001 C102.904,140.001 83.792,128.412 83.792,95.881 C83.792,95.881 83.792,10.539 83.792,10.539 C83.792,10.539 109.125,10.539 109.125,10.539 C109.125,10.539 109.125,97.032 109.125,97.032 C109.125,116.591 117.003,116.591 120.786,116.591 C127.629,116.591 129.629,114.062 130.684,111.590 C132.286,107.821 132.286,101.962 132.286,95.757 C132.286,95.757 132.286,10.539 132.286,10.539 C132.286,10.539 157.615,10.539 157.615,10.539 C157.615,10.539 157.615,102.532 157.615,102.532 C157.615,127.129 139.088,140.001 120.786,140.001 ZM23.467,55.121 C23.467,55.121 56.779,55.121 56.779,55.121 C56.779,55.121 56.826,80.488 56.826,80.488 C56.826,80.488 23.467,80.488 23.467,80.488 C23.467,80.488 23.467,137.671 23.467,137.671 C23.467,137.671 -0.001,137.671 -0.001,137.671 C-0.001,137.671 -0.001,10.540 -0.001,10.540 C-0.001,10.540 69.798,10.540 69.798,10.540 C69.798,10.540 69.798,35.852 69.798,35.852 C69.798,35.852 23.467,35.852 23.467,35.852 C23.467,35.852 23.467,55.121 23.467,55.121 Z" id="path-1" class="cls-2" fill-rule="evenodd"/>
</svg>
