<?xml version="1.0" encoding="utf-8"?>
<!-- Generator: Adobe Illustrator 16.0.0, SVG Export Plug-In . SVG Version: 6.00 Build 0)  -->
<!DOCTYPE svg PUBLIC "-//W3C//DTD SVG 1.1//EN" "http://www.w3.org/Graphics/SVG/1.1/DTD/svg11.dtd">
<svg version="1.1" id="Layer_1" xmlns="http://www.w3.org/2000/svg" xmlns:xlink="http://www.w3.org/1999/xlink" x="0px" y="0px"
	 width="600px" height="250px" viewBox="0 0 600 250" enable-background="new 0 0 600 250" xml:space="preserve">
<g>
	<path fill="#EAE5DB" d="M560.242,129.769c0,0.981-0.12,1.892-0.363,2.733c-0.245,0.838-0.599,1.59-1.072,2.253
		c-0.469,0.661-1.047,1.231-1.743,1.702c-0.686,0.47-1.479,0.82-2.374,1.062c-0.793,0.214-1.621,0.323-2.486,0.323
		c0.016-0.243,0.04-0.48,0.064-0.724c0.024-0.237,0.046-0.478,0.07-0.71c0.017-0.145,0.072-0.27,0.16-0.379
		c0.082-0.109,0.212-0.187,0.387-0.23c0.146-0.041,0.344-0.058,0.591-0.049c0.244,0.008,0.576-0.043,0.985-0.152
		c0.534-0.15,1.022-0.359,1.443-0.633c0.426-0.277,0.776-0.627,1.065-1.05c0.295-0.42,0.514-0.917,0.671-1.493
		c0.146-0.576,0.23-1.234,0.23-1.969v-11.55l2.371-0.635V129.769z"/>
	<path fill="#EAE5DB" d="M578.489,116.125c-0.072,0.14-0.149,0.253-0.232,0.337c-0.08,0.083-0.189,0.141-0.319,0.178
		c-0.139,0.038-0.301,0.012-0.484-0.078c-0.184-0.092-0.421-0.181-0.7-0.272c-0.285-0.091-0.626-0.153-1.022-0.187
		c-0.404-0.03-0.876,0.03-1.448,0.181c-0.531,0.142-1.004,0.34-1.412,0.592c-0.41,0.256-0.756,0.54-1.034,0.86
		c-0.271,0.318-0.477,0.663-0.617,1.031c-0.138,0.37-0.211,0.742-0.211,1.128c0,0.487,0.125,0.863,0.362,1.12
		c0.243,0.258,0.567,0.449,0.964,0.573c0.397,0.122,0.843,0.199,1.351,0.232c0.504,0.031,1.02,0.068,1.552,0.104
		c0.528,0.039,1.043,0.103,1.549,0.191c0.508,0.089,0.956,0.253,1.354,0.489c0.403,0.237,0.718,0.573,0.96,1.008
		c0.245,0.432,0.362,1.017,0.362,1.74c0,0.768-0.125,1.526-0.389,2.27c-0.261,0.746-0.646,1.434-1.153,2.066
		c-0.508,0.635-1.124,1.194-1.858,1.678c-0.734,0.482-1.568,0.846-2.506,1.098c-1.146,0.305-2.178,0.38-3.12,0.22
		c-0.938-0.16-1.736-0.503-2.404-1.032l0.684-1.312c0.074-0.108,0.15-0.204,0.245-0.288c0.094-0.09,0.201-0.146,0.312-0.179
		c0.178-0.046,0.376-0.007,0.596,0.118c0.219,0.126,0.498,0.251,0.827,0.383c0.339,0.133,0.735,0.227,1.209,0.286
		c0.47,0.058,1.047-0.005,1.729-0.187c0.565-0.153,1.072-0.367,1.51-0.643c0.447-0.271,0.826-0.591,1.129-0.956
		c0.307-0.364,0.543-0.765,0.709-1.199c0.16-0.438,0.244-0.897,0.244-1.38c0-0.53-0.122-0.933-0.361-1.209
		c-0.245-0.272-0.564-0.473-0.953-0.595c-0.395-0.123-0.85-0.198-1.352-0.22c-0.505-0.025-1.02-0.049-1.548-0.075
		c-0.533-0.025-1.048-0.08-1.554-0.165c-0.499-0.087-0.953-0.252-1.343-0.498c-0.396-0.25-0.718-0.603-0.96-1.065
		c-0.237-0.46-0.358-1.079-0.358-1.854c0-0.624,0.121-1.256,0.358-1.902c0.242-0.645,0.6-1.252,1.056-1.828
		c0.454-0.571,1.026-1.083,1.708-1.533c0.674-0.451,1.45-0.793,2.331-1.028c0.985-0.267,1.881-0.348,2.69-0.258
		c0.819,0.092,1.526,0.354,2.134,0.779L578.489,116.125z"/>
	<g>
		<g>
			<linearGradient id="SVGID_1_" gradientUnits="userSpaceOnUse" x1="511.1885" y1="-45.6406" x2="169.2202" y2="296.3277">
				<stop  offset="0" style="stop-color:#9AEAEA"/>
				<stop  offset="0.7749" style="stop-color:#2A3245"/>
				<stop  offset="0.7995" style="stop-color:#2E3146"/>
				<stop  offset="0.8256" style="stop-color:#3B2F48"/>
				<stop  offset="0.8522" style="stop-color:#502A4C"/>
				<stop  offset="0.8793" style="stop-color:#6E2451"/>
				<stop  offset="0.9067" style="stop-color:#941D58"/>
				<stop  offset="0.934" style="stop-color:#C11461"/>
				<stop  offset="0.9439" style="stop-color:#D41064"/>
			</linearGradient>
			<path fill="url(#SVGID_1_)" d="M262.975,125.697l26.131-6.999v59.981l18.68-5.008V113.69l26.652-7.14V87.869l-71.463,19.144
				V125.697z"/>
			<linearGradient id="SVGID_2_" gradientUnits="userSpaceOnUse" x1="511.1885" y1="-45.6406" x2="169.2202" y2="296.3277">
				<stop  offset="0" style="stop-color:#9AEAEA"/>
				<stop  offset="0.7749" style="stop-color:#2A3245"/>
				<stop  offset="0.7995" style="stop-color:#2E3146"/>
				<stop  offset="0.8256" style="stop-color:#3B2F48"/>
				<stop  offset="0.8522" style="stop-color:#502A4C"/>
				<stop  offset="0.8793" style="stop-color:#6E2451"/>
				<stop  offset="0.9067" style="stop-color:#941D58"/>
				<stop  offset="0.934" style="stop-color:#C11461"/>
				<stop  offset="0.9439" style="stop-color:#D41064"/>
			</linearGradient>
			<path fill="url(#SVGID_2_)" d="M232.297,161.255c0,8.585-6.983,17.442-15.572,19.742c-8.582,2.3-15.566-2.812-15.566-11.397
				v-46.024l-20.762,5.566v46.019c0,20.031,16.3,31.965,36.328,26.596c20.031-5.367,36.332-26.035,36.332-46.062V109.67
				l-20.76,5.562V161.255z"/>
			<linearGradient id="SVGID_3_" gradientUnits="userSpaceOnUse" x1="511.1885" y1="-45.6406" x2="169.2202" y2="296.3277">
				<stop  offset="0" style="stop-color:#9AEAEA"/>
				<stop  offset="0.7749" style="stop-color:#2A3245"/>
				<stop  offset="0.7995" style="stop-color:#2E3146"/>
				<stop  offset="0.8256" style="stop-color:#3B2F48"/>
				<stop  offset="0.8522" style="stop-color:#502A4C"/>
				<stop  offset="0.8793" style="stop-color:#6E2451"/>
				<stop  offset="0.9067" style="stop-color:#941D58"/>
				<stop  offset="0.934" style="stop-color:#C11461"/>
				<stop  offset="0.9439" style="stop-color:#D41064"/>
			</linearGradient>
			<path fill="url(#SVGID_3_)" d="M396.344,117.3c0,8.587-6.987,17.442-15.57,19.742c-8.588,2.303-15.572-2.811-15.572-11.398
				v-46.02l-20.763,5.562v46.022c0,20.033,16.298,31.963,36.335,26.592c20.03-5.365,36.325-26.031,36.325-46.061V65.714
				l-20.755,5.565V117.3z"/>
			<linearGradient id="SVGID_4_" gradientUnits="userSpaceOnUse" x1="511.1885" y1="-45.6406" x2="169.2202" y2="296.3277">
				<stop  offset="0" style="stop-color:#9AEAEA"/>
				<stop  offset="0.7749" style="stop-color:#2A3245"/>
				<stop  offset="0.7995" style="stop-color:#2E3146"/>
				<stop  offset="0.8256" style="stop-color:#3B2F48"/>
				<stop  offset="0.8522" style="stop-color:#502A4C"/>
				<stop  offset="0.8793" style="stop-color:#6E2451"/>
				<stop  offset="0.9067" style="stop-color:#941D58"/>
				<stop  offset="0.934" style="stop-color:#C11461"/>
				<stop  offset="0.9439" style="stop-color:#D41064"/>
			</linearGradient>
			<path fill="url(#SVGID_4_)" d="M101.396,198.704l52.438-14.049v-18.684l-52.438,14.049V198.704z"/>
			<linearGradient id="SVGID_5_" gradientUnits="userSpaceOnUse" x1="511.1885" y1="-45.6406" x2="169.2202" y2="296.3277">
				<stop  offset="0" style="stop-color:#9AEAEA"/>
				<stop  offset="0.7749" style="stop-color:#2A3245"/>
				<stop  offset="0.7995" style="stop-color:#2E3146"/>
				<stop  offset="0.8256" style="stop-color:#3B2F48"/>
				<stop  offset="0.8522" style="stop-color:#502A4C"/>
				<stop  offset="0.8793" style="stop-color:#6E2451"/>
				<stop  offset="0.9067" style="stop-color:#941D58"/>
				<stop  offset="0.934" style="stop-color:#C11461"/>
				<stop  offset="0.9439" style="stop-color:#D41064"/>
			</linearGradient>
			<path fill="url(#SVGID_5_)" d="M101.396,168.992l68.941-18.476v-18.684l-68.941,18.475V168.992z"/>
			<linearGradient id="SVGID_6_" gradientUnits="userSpaceOnUse" x1="511.1885" y1="-45.6406" x2="169.2202" y2="296.3277">
				<stop  offset="0" style="stop-color:#9AEAEA"/>
				<stop  offset="0.7749" style="stop-color:#2A3245"/>
				<stop  offset="0.7995" style="stop-color:#2E3146"/>
				<stop  offset="0.8256" style="stop-color:#3B2F48"/>
				<stop  offset="0.8522" style="stop-color:#502A4C"/>
				<stop  offset="0.8793" style="stop-color:#6E2451"/>
				<stop  offset="0.9067" style="stop-color:#941D58"/>
				<stop  offset="0.934" style="stop-color:#C11461"/>
				<stop  offset="0.9439" style="stop-color:#D41064"/>
			</linearGradient>
			<path fill="url(#SVGID_6_)" d="M101.396,228.503l18.864-5.049v-18.862l-18.864,5.054V228.503z"/>
			<linearGradient id="SVGID_7_" gradientUnits="userSpaceOnUse" x1="511.1885" y1="-45.6406" x2="169.2202" y2="296.3277">
				<stop  offset="0" style="stop-color:#9AEAEA"/>
				<stop  offset="0.7749" style="stop-color:#2A3245"/>
				<stop  offset="0.7995" style="stop-color:#2E3146"/>
				<stop  offset="0.8256" style="stop-color:#3B2F48"/>
				<stop  offset="0.8522" style="stop-color:#502A4C"/>
				<stop  offset="0.8793" style="stop-color:#6E2451"/>
				<stop  offset="0.9067" style="stop-color:#941D58"/>
				<stop  offset="0.934" style="stop-color:#C11461"/>
				<stop  offset="0.9439" style="stop-color:#D41064"/>
			</linearGradient>
			<path fill="url(#SVGID_7_)" d="M510.183,89.17l68.925-18.468V52.017l-68.925,18.467V89.17z"/>
			<linearGradient id="SVGID_8_" gradientUnits="userSpaceOnUse" x1="511.1885" y1="-45.6406" x2="169.2202" y2="296.3277">
				<stop  offset="0" style="stop-color:#9AEAEA"/>
				<stop  offset="0.7749" style="stop-color:#2A3245"/>
				<stop  offset="0.7995" style="stop-color:#2E3146"/>
				<stop  offset="0.8256" style="stop-color:#3B2F48"/>
				<stop  offset="0.8522" style="stop-color:#502A4C"/>
				<stop  offset="0.8793" style="stop-color:#6E2451"/>
				<stop  offset="0.9067" style="stop-color:#941D58"/>
				<stop  offset="0.934" style="stop-color:#C11461"/>
				<stop  offset="0.9439" style="stop-color:#D41064"/>
			</linearGradient>
			<path fill="url(#SVGID_8_)" d="M510.183,59.458l68.948-18.473V22.301l-68.948,18.473V59.458z"/>
			<linearGradient id="SVGID_9_" gradientUnits="userSpaceOnUse" x1="511.1885" y1="-45.6406" x2="169.2202" y2="296.3277">
				<stop  offset="0" style="stop-color:#9AEAEA"/>
				<stop  offset="0.7749" style="stop-color:#2A3245"/>
				<stop  offset="0.7995" style="stop-color:#2E3146"/>
				<stop  offset="0.8256" style="stop-color:#3B2F48"/>
				<stop  offset="0.8522" style="stop-color:#502A4C"/>
				<stop  offset="0.8793" style="stop-color:#6E2451"/>
				<stop  offset="0.9067" style="stop-color:#941D58"/>
				<stop  offset="0.934" style="stop-color:#C11461"/>
				<stop  offset="0.9439" style="stop-color:#D41064"/>
			</linearGradient>
			<path fill="url(#SVGID_9_)" d="M510.183,118.728l68.948-18.47V81.572l-68.948,18.473V118.728z"/>
			<linearGradient id="SVGID_10_" gradientUnits="userSpaceOnUse" x1="511.1885" y1="-45.6406" x2="169.2202" y2="296.3277">
				<stop  offset="0" style="stop-color:#9AEAEA"/>
				<stop  offset="0.7749" style="stop-color:#2A3245"/>
				<stop  offset="0.7995" style="stop-color:#2E3146"/>
				<stop  offset="0.8256" style="stop-color:#3B2F48"/>
				<stop  offset="0.8522" style="stop-color:#502A4C"/>
				<stop  offset="0.8793" style="stop-color:#6E2451"/>
				<stop  offset="0.9067" style="stop-color:#941D58"/>
				<stop  offset="0.934" style="stop-color:#C11461"/>
				<stop  offset="0.9439" style="stop-color:#D41064"/>
			</linearGradient>
			<path fill="url(#SVGID_10_)" d="M500.53,74.502c0-17.175-13.976-27.396-31.14-22.794l-42.481,11.381v20.76l42.481-11.384
				c5.723-1.53,10.377,1.874,10.377,7.599c0,5.722-4.654,11.627-10.377,13.161l-42.481,11.383v20.761l31.937-8.557l28.474,20.843
				l13.211-16.753l-18.131-13.269C493.461,99.572,500.53,86.748,500.53,74.502z"/>
		</g>
	</g>
	<path fill="#ED3E45" d="M28.712,111.06c0.614-0.469,1.238-0.922,1.874-1.359c0.637-0.433,1.274-0.868,1.939-1.307l1.906-1.298
		l1.9-1.301l7.754-5.036c1.272-0.821,2.571-1.639,3.879-2.45c1.316-0.813,2.607-1.606,3.881-2.386
		c1.315-0.835,2.632-1.638,3.946-2.405c1.31-0.767,2.624-1.548,3.938-2.34l1.517-0.863l2.825-10.614
		c0.212-0.893,0.711-1.648,1.482-2.269c0.763-0.624,1.563-0.934,2.392-0.94c0.834-0.004,1.458,0.323,1.878,0.978
		c0.416,0.654,0.517,1.426,0.296,2.318c-0.048,0.057-0.065,0.108-0.065,0.149l-2.044,6.591c1.276-0.689,2.551-1.381,3.851-2.081
		c1.285-0.696,2.597-1.375,3.903-2.032c0.703-0.362,1.399-0.714,2.079-1.048c0.674-0.334,1.364-0.665,2.067-0.985
		c1.315-0.656,2.697-1.292,4.14-1.892c0.7-0.321,1.385-0.627,2.067-0.917c0.682-0.294,1.392-0.583,2.137-0.871
		c1.358-0.54,2.78-1.051,4.274-1.537c0.744-0.288,1.492-0.532,2.231-0.732c0.748-0.201,1.51-0.385,2.303-0.552
		c0.344-0.049,0.717-0.104,1.121-0.167c0.389-0.06,0.808-0.108,1.245-0.136c0.397-0.019,0.798-0.042,1.211-0.066
		c0.421-0.021,0.867-0.008,1.351,0.035l1.315,0.306c0.438,0.145,0.894,0.349,1.382,0.616c0.391,0.242,0.811,0.595,1.242,1.044
		c0.354,0.518,0.614,1.062,0.793,1.629c0.134,0.581,0.199,1.151,0.199,1.722v0.722c-0.049,0.142-0.065,0.371-0.065,0.675
		c-0.091,0.461-0.179,0.9-0.261,1.317c-0.09,0.421-0.18,0.835-0.263,1.256c-0.225,0.891-0.497,1.73-0.829,2.52
		c-0.326,0.789-0.663,1.583-1.012,2.377c-0.354,0.751-0.74,1.49-1.156,2.213c-0.413,0.728-0.841,1.451-1.281,2.184
		c-0.875,1.418-1.805,2.784-2.792,4.098c-0.985,1.315-1.984,2.617-2.993,3.891c-1.007,1.28-2.043,2.509-3.122,3.697
		c-1.072,1.186-2.154,2.365-3.25,3.534c-1.097,1.166-2.178,2.314-3.253,3.431c-1.074,1.125-2.18,2.252-3.32,3.39
		c-0.176,0.136-0.329,0.283-0.457,0.453c-0.132,0.164-0.26,0.31-0.393,0.432c0.393-0.192,0.801-0.366,1.207-0.524
		c0.422-0.155,0.849-0.312,1.287-0.474c0.828-0.308,1.646-0.547,2.434-0.717c0.79-0.165,1.6-0.319,2.429-0.454
		c1.624-0.17,3.222-0.141,4.798,0.094c1.622,0.223,3.092,0.728,4.398,1.516c1.365,0.865,2.461,1.947,3.289,3.259
		c0.439,0.672,0.793,1.39,1.056,2.151c0.261,0.762,0.462,1.564,0.591,2.405c0.261,1.638,0.261,3.323,0,5.06
		c-0.087,0.855-0.243,1.707-0.459,2.554c-0.219,0.851-0.459,1.681-0.725,2.497c-0.309,0.826-0.639,1.633-0.988,2.429
		c-0.351,0.795-0.724,1.596-1.112,2.404c-0.397,0.761-0.802,1.517-1.223,2.263c-0.413,0.75-0.862,1.492-1.343,2.232
		c-0.48,0.748-0.971,1.471-1.476,2.174c-0.504,0.705-1.02,1.389-1.545,2.057c-1.055,1.375-2.141,2.709-3.253,3.994
		c-1.118,1.286-2.27,2.548-3.453,3.781c-2.363,2.43-4.8,4.725-7.291,6.883c-1.273,1.131-2.546,2.217-3.814,3.258
		c-1.272,1.041-2.564,2.066-3.879,3.076l-1.968,1.514c-0.354,0.226-0.683,0.459-0.991,0.693c-0.306,0.232-0.633,0.486-0.987,0.758
		l-4.003,2.847c-2.631,1.845-5.327,3.616-8.089,5.321c-1.353,0.891-2.71,1.748-4.073,2.568c-1.354,0.824-2.736,1.646-4.139,2.461
		c-1.404,0.811-2.79,1.609-4.176,2.397c-1.382,0.786-2.773,1.542-4.172,2.269c-2.764,1.482-5.544,2.941-8.348,4.371
		c-2.807,1.431-5.628,2.832-8.479,4.211c-0.389,0.194-0.751,0.223-1.086,0.094c-0.323-0.133-0.532-0.38-0.627-0.752
		c-0.082-0.371-0.016-0.762,0.203-1.173c0.218-0.407,0.524-0.71,0.918-0.901c5.526-2.662,11.063-5.526,16.632-8.599
		c1.358-0.756,2.719-1.524,4.068-2.308c1.363-0.779,2.721-1.569,4.081-2.37c1.351-0.849,2.7-1.688,4.04-2.53
		c1.341-0.842,2.66-1.678,3.977-2.512c2.672-1.768,5.288-3.574,7.854-5.422c2.564-1.848,5.094-3.787,7.594-5.815
		c0.607-0.516,1.225-1.026,1.832-1.542c0.618-0.516,1.23-1.031,1.846-1.545c0.615-0.512,1.215-1.037,1.806-1.569
		c0.593-0.532,1.174-1.069,1.741-1.615c2.411-2.223,4.67-4.495,6.771-6.81c2.186-2.428,4.161-4.882,5.909-7.367
		c0.878-1.244,1.713-2.518,2.502-3.826c0.786-1.304,1.493-2.607,2.103-3.914c0.656-1.358,1.184-2.682,1.58-3.974
		c0.218-0.668,0.393-1.321,0.528-1.945c0.129-0.628,0.237-1.259,0.323-1.896c0.134-1.307,0.115-2.461-0.062-3.463
		c-0.226-1.083-0.598-2.032-1.119-2.858c-0.487-0.793-1.164-1.464-2.033-2.018c-0.88-0.466-1.874-0.791-2.962-0.982
		c-1.005-0.167-2.144-0.191-3.416-0.069c-0.617,0.031-1.24,0.111-1.874,0.24c-0.641,0.125-1.26,0.271-1.875,0.435
		c-2.582,0.781-5.188,1.873-7.82,3.278c-1.356,0.717-2.652,1.457-3.88,2.224c-0.658,0.394-1.303,0.809-1.936,1.241
		c-0.638,0.433-1.28,0.868-1.945,1.311l-0.129,0.101c-0.351,0.313-0.717,0.456-1.114,0.429c-0.396-0.026-0.682-0.188-0.852-0.49
		c-0.219-0.295-0.268-0.645-0.132-1.052c0.132-0.407,0.369-0.77,0.717-1.083c1.189-1.237,2.437-2.426,3.752-3.565l1.907-1.564
		c0.218-0.188,0.413-0.373,0.583-0.553c0.178-0.178,0.376-0.382,0.6-0.615l3.282-3.313l3.156-3.407
		c1.055-1.159,2.08-2.321,3.085-3.491c1.007-1.167,1.999-2.364,2.963-3.584c0.96-1.221,1.907-2.45,2.826-3.686
		c0.918-1.228,1.813-2.465,2.69-3.709c0.438-0.598,0.855-1.213,1.256-1.848c0.389-0.631,0.785-1.261,1.178-1.892l1.185-1.895
		c0.17-0.309,0.339-0.625,0.491-0.955c0.152-0.325,0.344-0.649,0.563-0.973c0.349-0.66,0.662-1.293,0.954-1.896
		c0.278-0.602,0.557-1.225,0.817-1.863c0.216-0.628,0.425-1.241,0.628-1.843c0.193-0.601,0.361-1.202,0.488-1.806
		c0.085-0.288,0.146-0.566,0.161-0.833c0.025-0.272,0.06-0.542,0.101-0.817v-0.658c0-0.129-0.024-0.209-0.066-0.243v-0.067
		l-0.128-0.095c-0.091-0.021-0.194-0.047-0.331-0.076c-0.132-0.03-0.303-0.062-0.521-0.09l-1.446-0.007l-1.711,0.261
		c-1.185,0.271-2.435,0.607-3.744,1.004c-0.615,0.207-1.257,0.421-1.906,0.639c-0.658,0.223-1.315,0.462-1.973,0.727l-3.944,1.649
		c-0.655,0.263-1.314,0.536-1.973,0.823c-0.658,0.285-1.315,0.583-1.967,0.889c-0.664,0.306-1.332,0.618-2.009,0.934
		c-0.683,0.313-1.346,0.644-2.004,0.995c-2.626,1.231-5.258,2.529-7.888,3.891l-3.419,1.768l-23.461,75.426
		c-0.222,0.627-0.634,0.957-1.25,0.988c-0.567-0.065-0.764-0.403-0.593-1.02l19.061-72.078c-2.362,1.292-4.716,2.577-7.029,3.854
		c-2.32,1.283-4.666,2.587-7.03,3.924c-1.315,0.704-2.636,1.427-3.946,2.172c-1.316,0.748-2.631,1.494-3.941,2.239l-7.887,4.482
		c-0.396,0.234-0.77,0.302-1.121,0.197c-0.349-0.102-0.592-0.333-0.721-0.692c-0.09-0.326-0.056-0.675,0.102-1.046
		C28.104,111.648,28.36,111.33,28.712,111.06z"/>
	<path fill="#ED3E45" d="M121.379,111.794l-0.196,0.053c-0.049,0.059-0.087,0.09-0.128,0.102l-0.269,0.202
		c-0.261,0.158-0.463,0.297-0.584,0.419c-0.446,0.337-0.818,0.704-1.129,1.091c-0.39,0.367-0.786,0.802-1.18,1.3
		c-0.22,0.236-0.406,0.462-0.56,0.678s-0.338,0.461-0.557,0.74l-0.985,1.514c-0.22,0.279-0.397,0.554-0.526,0.83
		c-0.131,0.275-0.285,0.547-0.455,0.815c-0.184,0.266-0.344,0.539-0.498,0.819c-0.156,0.284-0.295,0.552-0.428,0.806
		c-0.303,0.477-0.592,1.034-0.853,1.677c-1.096,2.132-2.077,4.413-2.962,6.839c-0.213,0.581-0.413,1.173-0.583,1.768
		c-0.179,0.596-0.378,1.184-0.597,1.768c-0.171,0.575-0.33,1.152-0.458,1.732c-0.134,0.582-0.261,1.158-0.397,1.717l-0.261,1.712
		c-0.042,0.274-0.065,0.547-0.065,0.806c0,0.266,0,0.527,0,0.793v0.721l0.135,0.557l0.066,0.117l0.066,0.045l0.059-0.084
		c0.046-0.013,0.087-0.045,0.137-0.1l0.519-0.404l0.46-0.649l0.531-0.729l0.523-0.802l0.458-0.777
		c0.136-0.256,0.275-0.526,0.436-0.808c0.146-0.283,0.287-0.571,0.417-0.869c0.527-1.061,1.033-2.203,1.517-3.428
		c0.22-0.541,0.438-1.104,0.651-1.69c0.227-0.579,0.438-1.188,0.664-1.815c0.084-0.289,0.186-0.578,0.297-0.869
		c0.106-0.293,0.208-0.581,0.287-0.867l0.334-0.942c0.087-0.374,0.173-0.662,0.266-0.859l0.261-0.925l0.067-0.411l0.127-0.433
		l0.262-0.925v-0.195c0-0.042,0.014-0.08,0.039-0.106c0.017-0.029,0.033-0.064,0.033-0.11l0.063-0.215
		c0-0.086,0.021-0.156,0.065-0.214l0.134-0.36c0.306-0.696,0.751-1.231,1.343-1.611c0.59-0.376,1.197-0.494,1.806-0.354
		c0.532,0.079,0.912,0.337,1.155,0.776c0.236,0.44,0.313,0.914,0.23,1.416l-0.266,1.649c-0.091,0.289-0.141,0.564-0.167,0.833
		c-0.017,0.27-0.052,0.539-0.095,0.815c-0.226,1.112-0.354,2.198-0.388,3.26c0,0.043-0.021,0.08-0.038,0.105
		c-0.021,0.028-0.036,0.066-0.036,0.109l2.436-4.725c0.481-0.919,0.955-1.822,1.411-2.712c0.463-0.89,0.928-1.772,1.416-2.649
		c0.477-0.915,0.957-1.82,1.443-2.717c0.479-0.898,0.965-1.782,1.443-2.656c0.222-0.41,0.529-0.709,0.921-0.901
		c0.396-0.193,0.765-0.229,1.119-0.104c0.349,0.127,0.567,0.372,0.652,0.743c0.093,0.37,0.026,0.76-0.191,1.171l-2.831,5.356
		l-2.755,5.34c-0.483,0.874-0.937,1.763-1.351,2.665c-0.415,0.897-0.846,1.803-1.278,2.707l-1.248,2.634
		c-0.488,0.919-0.877,1.814-1.188,2.684c-0.177,0.444-0.468,0.806-0.888,1.093c-0.413,0.287-0.823,0.372-1.214,0.261
		c-0.219,0.014-0.415-0.086-0.592-0.303c-0.09-0.066-0.174-0.17-0.261-0.325c-0.09-0.06-0.133-0.116-0.133-0.161
		c0-0.041-0.021-0.1-0.061-0.18l-0.203-0.473l-0.26-0.916l-0.197-1.787c-0.049-0.076-0.072-0.221-0.072-0.439l-0.518,0.994
		c-0.358,0.619-0.673,1.229-0.958,1.833c-0.283,0.602-0.603,1.188-0.953,1.767l-0.983,1.775l-0.59,0.883
		c-0.092,0.154-0.178,0.309-0.269,0.461c-0.083,0.158-0.194,0.299-0.323,0.418c-0.352,0.578-0.814,1.183-1.381,1.816
		c-0.269,0.29-0.592,0.574-0.986,0.855c-0.178,0.133-0.396,0.281-0.661,0.439c-0.042,0.01-0.083,0.045-0.132,0.1l-0.584,0.156
		c-0.136,0.039-0.279,0.074-0.432,0.115c-0.15,0.043-0.301,0.035-0.428-0.014c-0.35-0.038-0.616-0.121-0.787-0.248
		c-0.133-0.055-0.232-0.137-0.295-0.249c-0.067-0.114-0.143-0.206-0.234-0.271l-0.323-0.502c-0.092-0.193-0.149-0.377-0.167-0.549
		c-0.018-0.165-0.053-0.335-0.1-0.497c0-0.176-0.011-0.337-0.032-0.485c-0.021-0.146-0.034-0.31-0.034-0.484
		c0-0.348,0-0.678,0-0.984s0.023-0.64,0.066-1.006c0.047-0.316,0.082-0.621,0.1-0.912c0.018-0.288,0.075-0.602,0.167-0.932
		c0.04-0.317,0.087-0.625,0.128-0.92c0.041-0.299,0.109-0.611,0.195-0.942c0.092-0.331,0.167-0.647,0.234-0.948
		c0.062-0.303,0.14-0.619,0.23-0.949c0.085-0.33,0.166-0.645,0.229-0.949c0.066-0.299,0.142-0.595,0.226-0.884
		c0.092-0.327,0.184-0.647,0.269-0.956c0.086-0.307,0.177-0.607,0.256-0.892l1.188-3.735c0.218-0.626,0.448-1.25,0.685-1.862
		c0.245-0.61,0.497-1.214,0.758-1.812c0.092-0.33,0.196-0.645,0.327-0.942c0.138-0.298,0.266-0.596,0.397-0.894
		c0.13-0.342,0.272-0.663,0.432-0.969c0.15-0.305,0.29-0.605,0.421-0.903c0.13-0.299,0.279-0.601,0.425-0.903
		c0.161-0.303,0.321-0.61,0.499-0.923l0.983-1.84c0.178-0.309,0.348-0.62,0.526-0.93c0.173-0.31,0.369-0.626,0.595-0.949
		c0.213-0.32,0.425-0.636,0.619-0.953c0.199-0.319,0.405-0.611,0.63-0.893c0.22-0.32,0.457-0.637,0.721-0.946
		c0.261-0.312,0.521-0.613,0.79-0.904c0.128-0.165,0.271-0.324,0.424-0.475c0.158-0.149,0.296-0.285,0.429-0.411
		c0.088-0.109,0.17-0.202,0.261-0.269c0.089-0.065,0.179-0.136,0.266-0.2c0.089-0.109,0.174-0.178,0.261-0.203l0.194-0.251
		c0.657-0.571,1.375-0.857,2.141-0.866c0.762-0.007,1.351,0.262,1.74,0.814c0.396,0.549,0.497,1.239,0.295,2.055
		c-0.194,0.822-0.62,1.515-1.277,2.088L121.379,111.794z"/>
	<path fill="#ED3E45" d="M128.084,113.614l7.028-15.159l0.261-0.599c0.352-0.707,0.868-1.26,1.547-1.664
		c0.674-0.399,1.346-0.512,2.004-0.338c0.574,0.153,0.964,0.474,1.184,0.967c0.219,0.485,0.243,1.062,0.065,1.72l-0.065,0.414
		l-0.463,1.239l-0.455,1.176l-0.924,2.412c-0.262,0.822-0.531,1.627-0.818,2.425c-0.285,0.798-0.58,1.612-0.887,2.438l-3.354,9.642
		c-0.918,2.742-1.77,5.468-2.563,8.174c0.615-1.083,1.248-2.171,1.906-3.268c0.657-1.096,1.357-2.184,2.105-3.257
		c0.916-1.43,1.858-2.836,2.828-4.209c0.962-1.375,1.942-2.726,2.951-4.045l3.091-3.985l1.643-1.951l0.855-1.016l0.589-0.75
		l0.13-0.101l0.138-0.167c0.61-0.646,1.292-1.037,2.037-1.169c0.743-0.133,1.357,0.02,1.838,0.46
		c0.354,0.345,0.559,0.768,0.626,1.275c0.065,0.511-0.012,1.035-0.229,1.574l-0.134,0.299c0,0.045-0.023,0.071-0.062,0.084
		l-0.065,0.15l-0.135,0.166c-0.085,0.11-0.175,0.266-0.262,0.463l-0.593,0.946c-0.219,0.324-0.402,0.637-0.557,0.94
		c-0.156,0.305-0.32,0.612-0.493,0.92l-0.525,0.996l-0.463,0.912l-0.854,1.94c-0.347,0.748-0.615,1.388-0.787,1.919l-0.595,1.866
		c-0.086,0.375-0.129,0.648-0.129,0.826c-0.048,0.187-0.065,0.431-0.065,0.741c0,0.042,0.007,0.074,0.034,0.087
		c0.021,0.016,0.031,0.045,0.031,0.09v0.064l-0.065,0.018l0.065,0.05l0.261-0.069c0.13-0.036,0.245-0.087,0.332-0.155
		c0.22-0.059,0.438-0.183,0.651-0.374c0.267-0.202,0.513-0.411,0.759-0.63c0.242-0.215,0.473-0.446,0.688-0.679
		c0.484-0.524,0.923-1.078,1.32-1.664c0.219-0.278,0.427-0.566,0.622-0.859c0.202-0.292,0.408-0.577,0.624-0.856
		c0.396-0.63,0.768-1.259,1.115-1.877c0.352-0.622,0.683-1.257,0.984-1.907l0.989-1.909l0.391-0.958l0.201-0.512l0.132-0.234
		c0-0.044,0.011-0.077,0.028-0.107c0.025-0.029,0.038-0.061,0.038-0.105c0.136-0.43,0.385-0.771,0.756-1.025
		c0.368-0.253,0.729-0.363,1.086-0.326c0.348,0.039,0.608,0.22,0.786,0.546c0.174,0.327,0.194,0.678,0.065,1.065l-0.194,0.381
		l-1.187,1.961l-1.114,1.942c-0.838,1.365-1.646,2.655-2.433,3.872l-1.315,1.93c-0.219,0.32-0.463,0.64-0.724,0.95
		c-0.262,0.314-0.525,0.612-0.786,0.902c-0.575,0.724-1.165,1.323-1.778,1.788c-0.391,0.328-0.762,0.603-1.118,0.829
		c-0.173,0.045-0.392,0.149-0.654,0.306l-0.72,0.194c-0.309,0.082-0.614,0.1-0.925,0.05c-0.262-0.063-0.519-0.187-0.786-0.38
		c-0.27-0.282-0.415-0.503-0.465-0.667c-0.082-0.106-0.143-0.224-0.159-0.35c-0.024-0.127-0.058-0.224-0.102-0.303
		c-0.046-0.205-0.062-0.41-0.062-0.605c0-0.198,0-0.408,0-0.626c0-0.219,0-0.418,0-0.592s0.016-0.376,0.062-0.606
		c0.044-0.672,0.179-1.407,0.395-2.209l0.128-0.759c-1.006,1.146-1.966,2.301-2.892,3.468c-0.915,1.167-1.835,2.354-2.753,3.565
		c-1.932,2.577-3.747,5.209-5.456,7.905c-0.836,1.362-1.633,2.725-2.397,4.09c-0.764,1.368-1.479,2.774-2.138,4.222
		c-0.396,0.852-0.961,1.222-1.709,1.112c-0.616-0.144-0.88-0.511-0.794-1.103v-0.13c0.09-0.813,0.202-1.641,0.336-2.487
		c0.127-0.845,0.281-1.666,0.458-2.456c0.134-0.827,0.286-1.653,0.463-2.491c0.175-0.833,0.352-1.67,0.522-2.504
		c0.396-1.642,0.787-3.266,1.184-4.885c0.393-1.621,0.812-3.251,1.246-4.903c0.136-0.561,0.27-1.125,0.432-1.691
		c0.15-0.569,0.312-1.137,0.491-1.708c-0.262,0.33-0.568,0.556-0.923,0.675c-0.346,0.115-0.675,0.103-0.985-0.033
		C127.865,115.029,127.729,114.451,128.084,113.614z"/>
	<path fill="#ED3E45" d="M164.357,101.264l-0.195,0.052c-0.041-0.031-0.108-0.035-0.196-0.011c-0.219,0.059-0.396,0.127-0.526,0.208
		c-0.35,0.181-0.77,0.467-1.251,0.857c-0.48,0.352-0.918,0.775-1.315,1.272c-0.526,0.495-0.965,1.004-1.309,1.536
		c-0.439,0.554-0.871,1.127-1.284,1.723c-0.422,0.593-0.8,1.201-1.148,1.82c-0.22,0.325-0.411,0.634-0.563,0.94
		c-0.153,0.303-0.314,0.609-0.491,0.918c-0.219,0.32-0.403,0.647-0.558,0.973c-0.151,0.325-0.295,0.637-0.428,0.936
		c-0.615,1.213-1.199,2.536-1.773,3.956l-0.726,1.97l-0.591,2.001c-0.09,0.372-0.159,0.713-0.226,1.015
		c-0.067,0.303-0.126,0.614-0.169,0.93c-0.086,0.376-0.138,0.707-0.162,0.997c-0.023,0.292-0.056,0.598-0.102,0.915
		c0,0.306,0,0.602,0,0.887c0,0.286,0.024,0.531,0.067,0.738l0.196,0.668c0.043,0.078,0.092,0.142,0.134,0.197
		c0.042,0.056,0.087,0.118,0.128,0.195c0.091,0.062,0.145,0.116,0.167,0.154c0.025,0.035,0.077,0.067,0.169,0.086
		c0.17,0.041,0.347,0.035,0.518-0.01l0.131,0.032l0.526-0.142l0.657-0.376c0.529-0.314,1.055-0.717,1.577-1.213
		c0.267-0.242,0.528-0.477,0.794-0.7c0.26-0.226,0.521-0.48,0.787-0.771l1.447-1.704c0.262-0.289,0.515-0.573,0.758-0.859
		c0.237-0.284,0.467-0.562,0.687-0.841c0.528-0.58,1.005-1.19,1.443-1.832l1.315-1.801c0.879-1.241,1.742-2.49,2.597-3.75
		c0.858-1.261,1.673-2.542,2.464-3.849l2.432-3.937l1.113-1.943l0.601-1.015l0.261-0.462l0.26-0.531
		c0.221-0.365,0.506-0.637,0.854-0.82c0.354-0.181,0.681-0.206,0.987-0.07c0.352,0.125,0.57,0.353,0.658,0.679
		c0.09,0.328,0.017,0.675-0.203,1.04c-0.042,0.056-0.062,0.104-0.062,0.146l-0.589,0.949l-0.658,1.031l-1.184,1.959l-2.498,3.888
		c-0.877,1.333-1.743,2.647-2.595,3.952c-0.853,1.298-1.721,2.572-2.595,3.815l-1.382,1.948l-1.442,1.896
		c-0.488,0.615-0.979,1.215-1.483,1.81c-0.501,0.595-1.041,1.213-1.611,1.847c-0.566,0.633-1.137,1.227-1.706,1.772
		c-0.305,0.3-0.621,0.586-0.96,0.847c-0.323,0.263-0.685,0.536-1.075,0.817c-0.218,0.145-0.435,0.268-0.629,0.362
		c-0.196,0.099-0.404,0.196-0.624,0.3c-0.087,0.021-0.14,0.049-0.163,0.078c-0.023,0.026-0.077,0.054-0.168,0.076l-1.047,0.281
		c-0.529,0.055-1.009,0.051-1.444-0.008c-0.528-0.164-0.942-0.383-1.253-0.648c-0.348-0.302-0.609-0.626-0.785-0.975
		c-0.227-0.422-0.349-0.803-0.396-1.14c-0.131-0.404-0.195-0.805-0.195-1.198c-0.042-0.207-0.065-0.396-0.065-0.573
		c0-0.175,0-0.371,0-0.592c0-0.745,0.05-1.493,0.166-2.245c0.104-0.754,0.23-1.497,0.36-2.234l0.586-2.258l0.592-2.2
		c0.269-0.724,0.529-1.455,0.791-2.182c0.263-0.728,0.548-1.464,0.854-2.2c0.572-1.378,1.229-2.803,1.974-4.274
		c0.748-1.517,1.576-2.944,2.496-4.287c0.221-0.364,0.449-0.718,0.692-1.072c0.236-0.348,0.516-0.695,0.818-1.042
		c0.525-0.708,1.141-1.422,1.841-2.136c0.748-0.725,1.534-1.371,2.369-1.949c0.221-0.146,0.445-0.283,0.686-0.415
		c0.237-0.13,0.495-0.252,0.76-0.366c0.132-0.079,0.275-0.139,0.427-0.182c0.154-0.038,0.296-0.077,0.426-0.113l0.789-0.208
		c0.788-0.172,1.446-0.053,1.974,0.358c0.526,0.403,0.787,0.999,0.787,1.791c-0.042,0.759-0.352,1.488-0.918,2.186
		c-0.576,0.701-1.226,1.129-1.974,1.285C164.532,101.285,164.396,101.296,164.357,101.264z"/>
	<path fill="#ED3E45" d="M171.52,117.418l-0.391,1.749l-0.261,1.713c-0.134,1.172-0.203,2.263-0.203,3.273
		c0,0.263,0.01,0.521,0.035,0.779c0.025,0.258,0.053,0.491,0.101,0.694l0.39,1.149c0.05,0.073,0.091,0.14,0.132,0.191
		c0.046,0.053,0.088,0.118,0.129,0.195l0.269,0.128c0.17,0.039,0.286,0.053,0.332,0.042l0.521-0.139
		c0.348-0.097,0.745-0.314,1.184-0.648c0.438-0.247,0.876-0.605,1.316-1.075c0.479-0.394,0.929-0.82,1.348-1.281
		c0.412-0.462,0.82-0.946,1.213-1.443c0.396-0.456,0.794-0.943,1.183-1.469c0.397-0.519,0.768-1.048,1.121-1.578
		c0.737-1.034,1.485-2.108,2.231-3.228c0.352-0.529,0.692-1.072,1.021-1.62c0.326-0.548,0.668-1.11,1.02-1.686l1.973-3.354
		c0.657-1.14,1.276-2.274,1.868-3.394c0.595-1.124,1.194-2.269,1.809-3.442l0.853-1.742l0.857-1.738l0.856-1.742l0.396-0.895
		l0.39-0.831c0.218-0.452,0.524-0.807,0.922-1.064c0.394-0.261,0.79-0.334,1.179-0.22c0.396,0.112,0.67,0.346,0.826,0.7
		c0.153,0.352,0.117,0.755-0.102,1.208l-0.066,0.087l-0.919,1.823l-0.918,1.756l-0.922,1.692c-0.179,0.31-0.327,0.615-0.457,0.914
		c-0.136,0.296-0.291,0.58-0.462,0.844c-0.615,1.173-1.242,2.337-1.877,3.491c-0.636,1.156-1.305,2.311-2.003,3.462l-1.973,3.421
		l-2.165,3.471c-0.352,0.578-0.715,1.135-1.085,1.673c-0.374,0.54-0.76,1.103-1.149,1.689c-0.396,0.586-0.789,1.144-1.186,1.665
		c-0.397,0.52-0.829,1.064-1.314,1.631c-0.438,0.556-0.891,1.104-1.346,1.644c-0.465,0.54-0.953,1.054-1.479,1.545l-0.854,0.755
		l-0.854,0.687c-0.356,0.229-0.705,0.442-1.055,0.646c-0.351,0.201-0.723,0.4-1.119,0.595l-1.049,0.282
		c-0.041,0.012-0.079,0.009-0.1-0.008c-0.016-0.017-0.057-0.02-0.102-0.004c-0.473,0.039-0.919,0.025-1.308-0.041
		c-0.22-0.074-0.418-0.154-0.597-0.238c-0.176-0.084-0.346-0.193-0.524-0.318c-0.134-0.139-0.261-0.271-0.39-0.39
		c-0.141-0.118-0.243-0.274-0.334-0.47c-0.087-0.151-0.162-0.296-0.229-0.43c-0.066-0.137-0.144-0.279-0.229-0.434
		c-0.084-0.148-0.144-0.313-0.16-0.481c-0.025-0.169-0.057-0.334-0.102-0.499c-0.091-0.328-0.155-0.637-0.199-0.933
		c-0.036-0.294-0.086-0.591-0.127-0.884c-0.05-0.341-0.066-0.663-0.066-0.968c0-0.306,0-0.613,0-0.922v-1.903l0.132-1.879
		l0.195-1.827c0.177-1.271,0.372-2.528,0.592-3.769c0.218-1.244,0.504-2.502,0.852-3.78c0.091-0.33,0.168-0.645,0.233-0.95
		c0.062-0.303,0.14-0.595,0.229-0.883l0.522-1.913c0.224-0.673,0.439-1.303,0.66-1.886l0.654-1.885
		c0.259-0.684,0.527-1.336,0.794-1.952c0.261-0.621,0.567-1.258,0.917-1.92c0.18-0.314,0.336-0.629,0.493-0.958
		c0.153-0.325,0.337-0.647,0.557-0.971c0.22-0.362,0.438-0.708,0.658-1.03c0.219-0.32,0.458-0.67,0.72-1.049l0.852-1.015
		l1.122-1.091c0.219-0.145,0.463-0.308,0.726-0.489c0.262-0.177,0.548-0.352,0.858-0.523c0.079-0.024,0.169-0.059,0.256-0.104
		c0.092-0.045,0.179-0.08,0.262-0.104l1.055-0.282c0.132-0.035,0.327-0.046,0.593-0.028c0.434-0.028,0.83,0.042,1.179,0.209
		c0.218,0.031,0.411,0.101,0.563,0.212c0.152,0.113,0.295,0.216,0.424,0.315l0.596,0.759l0.324,0.7l0.269,1.309
		c0.04,0.21,0.065,0.4,0.065,0.574c0,0.178,0,0.354,0,0.53c0,0.394-0.016,0.756-0.039,1.092c-0.021,0.334-0.051,0.683-0.094,1.044
		l-0.396,2.012c-0.13,0.647-0.285,1.291-0.464,1.931c-0.17,0.64-0.373,1.273-0.585,1.896c-0.09,0.335-0.191,0.656-0.302,0.969
		c-0.109,0.315-0.229,0.62-0.362,0.919l-0.325,0.941l-0.2,0.512l-0.192,0.449c-0.265,0.685-0.55,1.354-0.857,2.005
		c-0.307,0.65-0.656,1.292-1.049,1.924c-0.222,0.32-0.433,0.64-0.627,0.957c-0.194,0.313-0.403,0.613-0.623,0.888
		c-0.487,0.7-1.031,1.307-1.646,1.824c-0.261,0.289-0.591,0.574-0.985,0.854c-0.218,0.144-0.424,0.27-0.619,0.362
		c-0.202,0.098-0.41,0.198-0.629,0.301l-0.787,0.212c-0.352,0.003-0.609-0.01-0.789-0.052l-0.723-0.202
		c-0.132-0.096-0.284-0.25-0.461-0.466l-0.131-0.098L171.52,117.418z M173.561,111.613c0,0.264,0,0.528,0,0.79
		c0,0.263,0.018,0.498,0.066,0.703l0.196,0.54l0.194,0.345c0.048,0.031,0.09,0.041,0.132,0.027l0.2-0.053
		c0.08-0.024,0.222-0.101,0.392-0.236l0.463-0.453c0.17-0.178,0.337-0.374,0.49-0.591s0.319-0.459,0.49-0.725l0.792-1.461
		c0.482-1.136,0.854-2.2,1.115-3.191c0-0.084,0.015-0.153,0.039-0.206c0.017-0.046,0.026-0.118,0.026-0.204l0.069-0.413l0.2-0.905
		l0.322-1.733c0.091-0.591,0.168-1.173,0.234-1.738c0.062-0.565,0.117-1.117,0.163-1.655l0.133-1.547v-0.918
		c-0.179,0.223-0.396,0.544-0.658,0.962c-0.309,0.435-0.592,0.927-0.853,1.478c-0.31,0.523-0.597,1.06-0.859,1.608
		c-0.261,0.553-0.505,1.1-0.725,1.641c-0.479,1.007-0.919,2.023-1.315,3.046c-0.388,1.024-0.762,2.047-1.113,3.059
		C173.627,110.435,173.561,111.046,173.561,111.613z M179.085,96.597c-0.091-0.063-0.091-0.018,0,0.132V96.597z"/>
	<path fill="#ED3E45" d="M193.275,96.67c0.22-0.626,0.449-1.246,0.693-1.858c0.236-0.615,0.49-1.24,0.751-1.88
		c0.269-0.64,0.524-1.257,0.794-1.856c0.261-0.595,0.546-1.195,0.852-1.804c1.089-2.44,2.276-4.858,3.55-7.261
		c0.915-1.735,1.843-3.471,2.761-5.209c0.919-1.735,1.864-3.478,2.825-5.224c0.128-0.519,0.271-1.017,0.425-1.497
		c0.153-0.479,0.321-0.983,0.491-1.51c0.219-0.629,0.428-1.245,0.624-1.845c0.2-0.6,0.409-1.234,0.628-1.907
		c0.22-0.628,0.438-1.248,0.657-1.855c0.216-0.604,0.436-1.22,0.655-1.849c0.219-0.674,0.452-1.312,0.695-1.927
		c0.236-0.612,0.49-1.241,0.753-1.88l0.859-1.933c0.257-0.599,0.561-1.251,0.914-1.958l0.596-1.083
		c0.081-0.195,0.195-0.39,0.322-0.575c0.134-0.19,0.262-0.392,0.397-0.603l0.522-0.667l0.724-0.785l0.265-0.2
		c0.084-0.113,0.174-0.181,0.261-0.202l0.391-0.306c0.097-0.021,0.166-0.053,0.24-0.095c0.062-0.038,0.135-0.067,0.224-0.092
		c0.09-0.064,0.242-0.129,0.462-0.189c0.049-0.011,0.075-0.031,0.102-0.059c0.017-0.026,0.051-0.047,0.093-0.06l0.137-0.035
		l0.125,0.029l0.136-0.036c0.131-0.034,0.367-0.052,0.723-0.063c0.307,0.007,0.593,0.063,0.854,0.168
		c0.396,0.115,0.681,0.278,0.852,0.493c0.136,0.094,0.229,0.215,0.295,0.348c0.067,0.136,0.145,0.26,0.229,0.366l0.261,0.717
		c0.049,0.211,0.066,0.413,0.066,0.607c0,0.199,0,0.385,0,0.56c0,0.176-0.018,0.311-0.066,0.413c0,0.174-0.016,0.313-0.062,0.411
		c-0.042,0.233-0.083,0.451-0.133,0.661c-0.041,0.208-0.104,0.435-0.194,0.675l-0.396,1.093c-0.129,0.384-0.271,0.74-0.421,1.068
		c-0.159,0.327-0.304,0.658-0.431,0.999l-0.92,1.89l-1.973,3.683c-0.657,1.185-1.326,2.362-2.009,3.527
		c-0.675,1.165-1.367,2.352-2.067,3.546c-0.219,0.322-0.42,0.638-0.592,0.946c-0.17,0.309-0.349,0.62-0.524,0.93l-0.394,1.224
		l-1.184,3.666c-0.787,2.446-1.57,4.889-2.334,7.33c-0.763,2.442-1.522,4.898-2.27,7.378l-4.531,14.752l-3.157,10.177
		c0.835-1.013,1.642-2.04,2.436-3.082c0.959-1.177,1.883-2.366,2.762-3.565c0.876-1.197,1.753-2.421,2.631-3.661
		c0.874-1.244,1.714-2.488,2.525-3.735c0.808-1.247,1.612-2.502,2.401-3.765c0.787-1.263,1.551-2.532,2.297-3.806
		c0.746-1.27,1.469-2.57,2.168-3.899c0.178-0.31,0.422-0.547,0.724-0.717c0.306-0.172,0.591-0.202,0.852-0.097
		c0.267,0.102,0.439,0.299,0.528,0.579c0.09,0.284,0.039,0.582-0.125,0.893c-0.754,1.338-1.496,2.666-2.24,3.979
		c-0.744,1.318-1.533,2.637-2.361,3.954c-0.793,1.307-1.611,2.601-2.471,3.88c-0.854,1.283-1.717,2.544-2.594,3.789
		c-0.876,1.24-1.765,2.476-2.657,3.703c-0.903,1.225-1.833,2.45-2.8,3.672l-2.825,3.583l-1.512,1.786l-0.719,0.85l-0.396,0.435
		l-0.2,0.251l-0.194,0.185c-0.615,0.688-1.157,0.791-1.645,0.309c-0.263-0.193-0.328-0.505-0.195-0.936v-0.063
		c0.218-1.201,0.455-2.426,0.724-3.678c0.264-1.253,0.525-2.485,0.786-3.696c0.269-1.252,0.54-2.497,0.821-3.734
		c0.285-1.239,0.582-2.464,0.891-3.69c0.567-2.518,1.158-4.996,1.771-7.442c0.617-2.441,1.226-4.905,1.843-7.392l0.984-3.682
		c-0.352,0.533-0.664,1.044-0.953,1.537c-0.287,0.496-0.578,0.997-0.884,1.519c-0.658,1.142-1.316,2.281-1.974,3.421
		c-0.659,1.142-1.291,2.295-1.908,3.468c-0.177,0.311-0.412,0.539-0.724,0.687c-0.306,0.147-0.591,0.168-0.853,0.066
		C193.21,97.763,193.057,97.341,193.275,96.67z"/>
	<path fill="#ED3E45" d="M223.306,98.02l0.396,0.353c0.17,0.134,0.31,0.204,0.396,0.225c0.17,0.042,0.311,0.05,0.391,0.028
		c0.177,0.042,0.375-0.014,0.594-0.16c0.088-0.024,0.306-0.125,0.654-0.306l0.725-0.523c0.132-0.169,0.372-0.385,0.725-0.654
		l0.657-0.768c0.921-1.038,1.774-2.183,2.564-3.447c0.349-0.576,0.7-1.172,1.047-1.792c0.356-0.622,0.708-1.262,1.055-1.925
		c0.348-0.663,0.682-1.321,0.988-1.974c0.303-0.65,0.589-1.317,0.85-2.002c0.177-0.399,0.448-0.724,0.828-0.975
		c0.365-0.257,0.752-0.344,1.149-0.278c0.347,0.08,0.604,0.299,0.75,0.652c0.153,0.354,0.144,0.729-0.026,1.126
		c0,0.045-0.015,0.081-0.04,0.106c-0.021,0.03-0.034,0.065-0.034,0.106c-0.738,1.343-1.462,2.676-2.162,4.002
		c-0.707,1.326-1.491,2.677-2.369,4.051c-0.39,0.631-0.82,1.285-1.277,1.952c-0.463,0.672-0.953,1.32-1.482,1.942l-0.853,0.948
		c-0.129,0.169-0.279,0.329-0.431,0.48c-0.15,0.151-0.314,0.294-0.495,0.427l-1.047,0.873c-0.265,0.248-0.657,0.505-1.184,0.777
		c-0.219,0.104-0.452,0.198-0.692,0.286c-0.236,0.086-0.493,0.165-0.755,0.236c-0.525,0.052-1.007,0.048-1.445-0.006
		c-0.437-0.014-0.786-0.098-1.055-0.246c-0.085,0.113-0.128,0.21-0.128,0.296c-0.57,1.383-1.162,2.636-1.77,3.764
		c-0.658,1.226-1.407,2.436-2.235,3.619c-0.224,0.279-0.449,0.573-0.693,0.877c-0.244,0.307-0.515,0.61-0.824,0.912
		c-0.258,0.289-0.543,0.562-0.852,0.817c-0.308,0.258-0.634,0.501-0.99,0.726c-0.39,0.282-0.762,0.489-1.114,0.628
		c-0.127,0.08-0.322,0.153-0.59,0.227l-0.592,0.156c-0.48,0.128-0.895,0.153-1.249,0.069c-0.216-0.026-0.429-0.059-0.622-0.094
		c-0.196-0.033-0.387-0.114-0.564-0.247c-0.172-0.125-0.331-0.244-0.49-0.358c-0.15-0.112-0.271-0.265-0.363-0.461l-0.521-0.912
		c-0.087-0.325-0.154-0.659-0.202-0.998c-0.038-0.341-0.08-0.678-0.129-1.016c0-0.351,0-0.679,0-0.986
		c0-0.305,0.024-0.64,0.065-1.004c0.046-0.362,0.087-0.691,0.131-0.991c0.048-0.296,0.113-0.61,0.2-0.938
		c0.091-0.637,0.209-1.274,0.362-1.904c0.146-0.631,0.312-1.281,0.49-1.938c0.22-0.63,0.428-1.257,0.63-1.878
		c0.195-0.622,0.401-1.248,0.62-1.877c0.218-0.625,0.452-1.246,0.689-1.861c0.239-0.611,0.514-1.243,0.82-1.895l0.394-0.895
		l0.46-0.978c0.176-0.31,0.334-0.616,0.461-0.912c0.134-0.299,0.311-0.611,0.531-0.929c0.17-0.354,0.346-0.688,0.519-0.995
		c0.175-0.312,0.375-0.627,0.594-0.949l0.591-0.945l0.789-0.937l0.852-1.019c0.268-0.242,0.639-0.585,1.121-1.02
		c0.486-0.392,0.987-0.683,1.51-0.867c0.219-0.1,0.55-0.212,0.987-0.327c0.22-0.059,0.397-0.084,0.53-0.078l0.262-0.068l0.061,0.045
		l0.133-0.033c0.746-0.068,1.326,0.148,1.74,0.652c0.422,0.5,0.562,1.138,0.431,1.921c0,0.044-0.009,0.067-0.034,0.073
		c-0.025,0.007-0.034,0.031-0.034,0.075l0.396,0.485c0.17,0.392,0.311,0.794,0.391,1.212c0.048,0.208,0.075,0.403,0.101,0.596
		c0.017,0.191,0.031,0.396,0.031,0.615c0.045,0.208,0.068,0.39,0.068,0.542c0,0.153,0,0.341,0,0.557l-0.2,2.091l-0.391,2.01
		c-0.087,0.333-0.178,0.652-0.261,0.957c-0.087,0.312-0.177,0.632-0.265,0.959c-0.091,0.289-0.167,0.569-0.233,0.851
		c-0.065,0.28-0.142,0.541-0.23,0.785L223.306,98.02z M218.051,90.687c-0.22,0.237-0.401,0.463-0.557,0.679
		c-0.154,0.216-0.338,0.463-0.562,0.742l-0.984,1.512c-0.091,0.155-0.167,0.296-0.23,0.422c-0.064,0.129-0.142,0.244-0.231,0.356
		l-0.457,0.849c-0.306,0.562-0.602,1.125-0.895,1.681c-0.277,0.56-0.532,1.11-0.752,1.647c-0.479,1.052-0.943,2.205-1.381,3.462
		l-0.518,1.718c-0.09,0.283-0.168,0.567-0.234,0.85c-0.062,0.282-0.117,0.556-0.162,0.831c-0.091,0.289-0.158,0.569-0.202,0.843
		c-0.036,0.274-0.085,0.55-0.134,0.825c-0.041,0.273-0.062,0.543-0.062,0.807c0,0.26,0,0.503,0,0.72
		c0,0.265,0.009,0.502,0.035,0.716c0.023,0.213,0.059,0.422,0.093,0.632c0.094,0.236,0.179,0.389,0.27,0.452l0.194,0.278
		c0.177,0.042,0.285,0.053,0.329,0.042l0.455,0.008l0.337-0.085c0.036-0.015,0.075-0.035,0.093-0.062
		c0.024-0.028,0.077-0.054,0.164-0.074c0.091-0.027,0.268-0.116,0.529-0.275c0.39-0.279,0.762-0.62,1.12-1.021l1.113-1.35
		c0.615-0.91,1.2-1.965,1.775-3.17c0.479-1.093,0.919-2.217,1.315-3.376c0.128-0.385,0.271-0.806,0.428-1.264
		c0.145-0.456,0.271-0.918,0.358-1.377c-0.087-0.329-0.177-0.654-0.262-0.984c-0.093-0.323-0.178-0.675-0.263-1.044
		c-0.092-0.327-0.155-0.669-0.196-1.03c-0.041-0.362-0.114-0.707-0.195-1.034c0-0.216-0.021-0.412-0.038-0.584
		c-0.021-0.165-0.035-0.341-0.035-0.515c0-0.22,0-0.406,0-0.561c0-0.15-0.017-0.331-0.065-0.54v-1.118
		c0.049-0.142,0.065-0.301,0.065-0.478c0-0.173,0-0.35,0-0.524L218.051,90.687z M219.236,90.371l0.063-0.018l-0.063-0.049V90.371z"
		/>
	<path fill="#ED3E45" d="M240.197,80.352c-0.48,1.139-0.954,2.272-1.409,3.403c-0.463,1.127-0.911,2.259-1.351,3.383l-2.693,6.832
		l-1.844,4.898c0.569-0.897,1.145-1.805,1.712-2.725c0.57-0.921,1.161-1.833,1.777-2.743c0.741-1.077,1.477-2.139,2.195-3.186
		c0.726-1.05,1.46-2.088,2.203-3.119c0.178-0.268,0.354-0.521,0.528-0.769c0.172-0.244,0.373-0.504,0.594-0.779
		c0.39-0.546,0.807-1.074,1.25-1.587l1.381-1.615l0.853-0.82l0.322-0.288l0.4-0.303l0.063-0.082l0.133-0.036l0.061-0.082
		l0.133-0.037l0.137-0.102l0.066-0.017c0.082-0.022,0.17-0.058,0.262-0.103c0.086-0.045,0.193-0.084,0.321-0.122
		c0.091-0.024,0.155-0.017,0.203,0.011c0-0.041,0.042-0.064,0.132-0.064c0.087,0,0.105,0.001,0.062,0.016l0.066-0.018
		c0.044-0.014,0.077-0.009,0.102,0.003c0.017,0.02,0.054,0.02,0.094,0.008c0.351,0.039,0.683,0.125,0.988,0.264l0.529,0.382
		l0.261,0.456l0.195,0.341l0.195,0.604c0.049,0.122,0.072,0.291,0.072,0.513c0.039,0.208,0.078,0.381,0.094,0.531
		c0.025,0.146,0.035,0.306,0.035,0.482c0,0.134,0.01,0.273,0.029,0.419c0.023,0.15,0.037,0.31,0.037,0.484
		c0,1.184-0.066,2.338-0.195,3.469c-0.048,0.581-0.09,1.154-0.138,1.712c-0.043,0.561-0.104,1.135-0.196,1.728l-0.261,3.355
		c0,0.262-0.009,0.53-0.034,0.799c-0.018,0.271-0.029,0.538-0.029,0.796c0,0.134,0.012,0.25,0.029,0.353
		c0.025,0.107,0.034,0.199,0.034,0.287l0.724-0.982l0.919-1.491c0.356-0.535,0.669-1.059,0.954-1.574
		c0.285-0.514,0.581-1.053,0.888-1.618c0.608-1.084,1.196-2.167,1.742-3.258c0.544-1.088,1.107-2.192,1.674-3.307l1.576-3.314
		l0.788-1.659c0.091-0.155,0.156-0.294,0.195-0.415c0.047-0.121,0.09-0.255,0.138-0.398l0.39-0.828
		c0.221-0.453,0.527-0.807,0.924-1.068c0.393-0.258,0.782-0.329,1.186-0.217c0.345,0.124,0.599,0.365,0.753,0.718
		c0.152,0.355,0.124,0.756-0.102,1.211c0,0.043-0.017,0.069-0.067,0.082l-1.639,3.332l-1.711,3.35
		c-0.568,1.115-1.14,2.222-1.706,3.314c-0.57,1.095-1.162,2.208-1.779,3.337l-1.833,3.316l-1.054,1.662
		c-0.353,0.577-0.748,1.143-1.188,1.7c-0.17,0.308-0.415,0.613-0.717,0.916l-0.532,0.535c-0.17,0.133-0.303,0.213-0.391,0.234
		l-0.592,0.358c-0.218,0.06-0.504,0.093-0.855,0.098c-0.129-0.009-0.254-0.031-0.357-0.068c-0.115-0.035-0.21-0.085-0.297-0.152
		c-0.09-0.062-0.157-0.122-0.199-0.177c-0.045-0.052-0.11-0.111-0.201-0.174l-0.195-0.278l-0.262-0.586l-0.127-0.488
		c-0.091-0.418-0.137-0.731-0.137-0.954c-0.042-0.119-0.065-0.254-0.065-0.409c0-0.154,0-0.295,0-0.426
		c-0.041-0.292-0.077-0.582-0.094-0.863c-0.024-0.274-0.034-0.57-0.034-0.875c-0.049-0.556-0.067-1.111-0.067-1.658
		c0-0.548,0-1.105,0-1.678l-0.065-3.333l-0.063-0.769v-1.58c-0.049-0.073-0.065-0.202-0.065-0.375
		c-0.396,0.455-0.731,0.873-0.989,1.249l-1.186,1.5c-0.741,0.947-1.486,1.924-2.233,2.934c-0.746,1.009-1.486,2.008-2.232,2.994
		l-4.467,6.13c-0.746,1.031-1.474,2.046-2.174,3.042c-0.697,1.002-1.398,2.032-2.101,3.096l-0.985,1.578
		c-0.219,0.278-0.408,0.536-0.557,0.776c-0.152,0.237-0.318,0.489-0.49,0.755l-0.989,1.582l-0.333,0.743
		c-0.083,0.195-0.171,0.352-0.261,0.466l-0.264,0.595l-0.134,0.166l-0.323,0.417l-0.132,0.166l-0.13,0.101l-0.396,0.236
		c-0.041,0.013-0.255,0.081-0.63,0.203c-0.364,0.121-0.727,0.008-1.076-0.335c-0.218-0.335-0.308-0.588-0.267-0.752
		c0.049-0.163,0.049-0.285,0-0.361c0.049-0.098,0.068-0.193,0.068-0.278c0.042-0.058,0.067-0.108,0.067-0.15l0.064-0.084
		c0-0.044,0.019-0.093,0.066-0.148c0-0.046,0.004-0.068,0.029-0.074c0.024-0.007,0.035-0.035,0.035-0.075l0.131-0.298l0.525-0.865
		l0.066-0.084c0.171-0.306,0.327-0.7,0.457-1.172c0.218-0.542,0.433-1.089,0.626-1.646c0.198-0.557,0.411-1.127,0.623-1.712
		c0.132-0.254,0.253-0.527,0.362-0.82c0.105-0.293,0.207-0.581,0.303-0.868l0.584-1.67l0.529-1.717l0.591-1.735
		c0.219-0.543,0.403-1.093,0.557-1.664c0.153-0.567,0.339-1.141,0.558-1.729L231,93.531c0.348-1.148,0.691-2.29,1.02-3.429
		c0.323-1.14,0.668-2.284,1.012-3.427c0.356-1.146,0.688-2.286,0.988-3.421c0.307-1.13,0.617-2.29,0.924-3.466
		c0.217-0.804,0.656-1.493,1.312-2.061c0.657-0.571,1.359-0.844,2.102-0.827c0.744,0.017,1.314,0.317,1.711,0.89
		c0.39,0.574,0.484,1.261,0.262,2.063C240.33,79.989,240.289,80.154,240.197,80.352z M224.293,112.678v0.064l0.067-0.082
		L224.293,112.678z M226.656,113.818l0.066-0.085v-0.067c0,0.045-0.019,0.071-0.066,0.084V113.818z"/>
	<path fill="#ED3E45" d="M269.247,72.173l-0.196,0.054c-0.041,0.054-0.092,0.089-0.133,0.102l-0.264,0.202
		c-0.262,0.16-0.457,0.299-0.588,0.419c-0.441,0.337-0.812,0.703-1.118,1.087c-0.397,0.37-0.789,0.802-1.187,1.304
		c-0.22,0.236-0.406,0.459-0.558,0.675s-0.337,0.466-0.556,0.744l-0.989,1.511c-0.218,0.279-0.388,0.557-0.521,0.833
		c-0.136,0.275-0.29,0.546-0.467,0.81c-0.174,0.27-0.338,0.543-0.495,0.823c-0.146,0.284-0.287,0.551-0.417,0.806
		c-0.311,0.477-0.599,1.033-0.859,1.673c-1.096,2.136-2.082,4.416-2.957,6.842c-0.216,0.583-0.416,1.173-0.593,1.768
		s-0.371,1.181-0.592,1.764c-0.171,0.575-0.331,1.152-0.463,1.737c-0.129,0.583-0.261,1.154-0.391,1.716l-0.267,1.716
		c-0.041,0.271-0.062,0.543-0.062,0.805c0,0.261,0,0.521,0,0.788v0.723l0.128,0.555l0.073,0.115l0.062,0.047l0.065-0.083
		c0.044-0.014,0.085-0.045,0.13-0.1l0.521-0.404l0.471-0.649l0.52-0.73l0.521-0.8l0.47-0.783c0.129-0.251,0.271-0.521,0.424-0.804
		c0.153-0.282,0.297-0.574,0.428-0.87c0.527-1.064,1.03-2.204,1.512-3.428c0.219-0.539,0.438-1.103,0.657-1.689
		c0.221-0.583,0.438-1.19,0.658-1.819c0.081-0.287,0.181-0.574,0.296-0.866c0.104-0.294,0.206-0.582,0.296-0.869l0.331-0.941
		c0.082-0.374,0.167-0.661,0.261-0.859l0.26-0.927l0.067-0.41l0.136-0.431l0.261-0.924v-0.196c0-0.044,0.011-0.08,0.026-0.108
		c0.025-0.028,0.034-0.062,0.034-0.107l0.067-0.216c0-0.087,0.024-0.157,0.066-0.211l0.129-0.366
		c0.31-0.696,0.758-1.232,1.347-1.608c0.599-0.378,1.201-0.494,1.812-0.354c0.526,0.08,0.906,0.337,1.15,0.778
		c0.238,0.438,0.32,0.913,0.229,1.416l-0.269,1.646c-0.08,0.288-0.14,0.566-0.158,0.836c-0.023,0.266-0.056,0.539-0.101,0.814
		c-0.218,1.111-0.352,2.198-0.392,3.261c0,0.043-0.01,0.08-0.035,0.105c-0.025,0.028-0.028,0.067-0.028,0.108l2.425-4.728
		c0.481-0.917,0.953-1.822,1.411-2.713c0.462-0.886,0.933-1.771,1.415-2.644c0.48-0.916,0.961-1.825,1.447-2.718
		c0.485-0.898,0.965-1.78,1.445-2.658c0.22-0.408,0.525-0.708,0.919-0.898c0.4-0.197,0.768-0.232,1.116-0.105
		c0.352,0.125,0.57,0.372,0.665,0.743c0.083,0.371,0.017,0.76-0.202,1.17l-2.825,5.356l-2.76,5.34
		c-0.483,0.875-0.931,1.763-1.343,2.664c-0.422,0.896-0.849,1.803-1.289,2.709l-1.248,2.633c-0.48,0.918-0.877,1.813-1.177,2.683
		c-0.182,0.442-0.477,0.807-0.891,1.092c-0.421,0.287-0.821,0.373-1.218,0.258c-0.219,0.017-0.419-0.083-0.596-0.301
		c-0.08-0.064-0.171-0.169-0.258-0.324c-0.09-0.062-0.132-0.119-0.132-0.161c0-0.043-0.025-0.103-0.066-0.181l-0.194-0.473
		l-0.264-0.915l-0.201-1.788c-0.036-0.073-0.061-0.221-0.061-0.442l-0.529,0.997c-0.354,0.618-0.669,1.228-0.954,1.831
		c-0.282,0.6-0.602,1.191-0.946,1.767l-0.987,1.773l-0.595,0.886c-0.09,0.151-0.18,0.309-0.26,0.463
		c-0.09,0.155-0.2,0.294-0.332,0.417c-0.35,0.575-0.812,1.178-1.379,1.815c-0.262,0.287-0.594,0.573-0.985,0.855
		c-0.176,0.132-0.396,0.278-0.663,0.438c-0.041,0.013-0.082,0.045-0.123,0.101l-0.592,0.156c-0.139,0.035-0.275,0.073-0.428,0.115
		c-0.153,0.042-0.304,0.036-0.432-0.014c-0.352-0.042-0.612-0.126-0.791-0.253c-0.128-0.05-0.222-0.134-0.295-0.249
		c-0.063-0.111-0.143-0.204-0.223-0.266l-0.334-0.503c-0.088-0.195-0.143-0.379-0.164-0.548c-0.018-0.168-0.055-0.335-0.1-0.497
		c0-0.175-0.008-0.338-0.032-0.486c-0.017-0.149-0.027-0.308-0.027-0.488c0-0.344,0-0.676,0-0.981c0-0.31,0.018-0.643,0.06-1.006
		c0.045-0.316,0.082-0.623,0.1-0.912c0.021-0.292,0.076-0.6,0.164-0.933c0.047-0.316,0.091-0.625,0.133-0.92
		c0.046-0.297,0.111-0.611,0.201-0.941c0.08-0.333,0.159-0.648,0.223-0.949c0.073-0.301,0.145-0.62,0.234-0.952
		c0.087-0.327,0.162-0.645,0.229-0.947s0.143-0.595,0.229-0.882c0.092-0.329,0.18-0.649,0.262-0.96
		c0.091-0.308,0.179-0.604,0.261-0.891l1.188-3.736c0.217-0.626,0.447-1.246,0.691-1.858c0.236-0.612,0.489-1.218,0.751-1.813
		c0.087-0.329,0.202-0.642,0.331-0.941c0.133-0.298,0.262-0.599,0.397-0.895c0.132-0.343,0.267-0.667,0.422-0.969
		c0.151-0.304,0.301-0.605,0.431-0.903c0.131-0.298,0.275-0.601,0.421-0.904c0.161-0.303,0.327-0.612,0.498-0.919l0.984-1.843
		c0.177-0.308,0.354-0.619,0.532-0.929c0.17-0.311,0.366-0.627,0.584-0.949c0.221-0.32,0.429-0.638,0.624-0.958
		c0.202-0.312,0.404-0.61,0.63-0.888c0.217-0.319,0.457-0.637,0.72-0.947c0.261-0.312,0.53-0.613,0.79-0.903
		c0.128-0.166,0.271-0.322,0.425-0.476c0.153-0.149,0.296-0.284,0.429-0.41c0.086-0.11,0.178-0.202,0.265-0.267
		c0.084-0.067,0.174-0.137,0.261-0.201c0.09-0.113,0.17-0.177,0.262-0.202l0.2-0.252c0.652-0.57,1.368-0.858,2.135-0.866
		c0.767-0.009,1.35,0.265,1.739,0.814c0.397,0.55,0.498,1.235,0.304,2.055c-0.203,0.819-0.632,1.515-1.288,2.086L269.247,72.173z"/>
</g>
</svg>
